<svg width="256" height="256" viewBox="0 0 256 256" fill="none" xmlns="http://www.w3.org/2000/svg">
<path d="M81.4264 200.688C68.8824 200.688 57.2344 198 46.4824 192.624C35.8797 187.099 27.293 178.811 20.7224 167.76C14.301 156.709 11.0904 142.896 11.0904 126.32C11.0904 114.075 12.957 103.248 16.6904 93.84C20.573 84.2827 25.7997 76.2187 32.3704 69.648C39.0904 63.0773 46.6317 58.1493 54.9944 54.864C63.5064 51.4293 72.317 49.712 81.4264 49.712C91.133 49.712 99.7944 51.5787 107.41 55.312C115.176 59.0453 121.597 63.6 126.674 68.976L106.514 92.272C102.93 89.136 99.197 86.8213 95.3144 85.328C91.581 83.6853 87.2504 82.864 82.3224 82.864C76.797 82.864 71.5704 84.5813 66.6424 88.016C61.8637 91.4507 57.981 96.304 54.9944 102.576C52.0077 108.848 50.5144 116.315 50.5144 124.976C50.5144 134.085 51.933 141.851 54.7704 148.272C57.6077 154.544 61.565 159.323 66.6424 162.608C71.7197 165.893 77.5437 167.536 84.1144 167.536C89.341 167.536 94.045 166.491 98.2264 164.4C102.408 162.16 105.917 159.621 108.754 156.784L128.018 179.632C121.597 186.8 114.429 192.101 106.514 195.536C98.749 198.971 90.3864 200.688 81.4264 200.688Z" fill="#FAFAFA"/>
<path d="M203.708 200.688C191.164 200.688 179.516 198 168.764 192.624C158.161 187.099 149.574 178.811 143.004 167.76C136.582 156.709 133.372 142.896 133.372 126.32C133.372 114.075 135.238 103.248 138.972 93.84C142.854 84.2827 148.081 76.2187 154.652 69.648C161.372 63.0773 168.913 58.1493 177.276 54.864C185.788 51.4293 194.598 49.712 203.708 49.712C213.414 49.712 222.076 51.5787 229.692 55.312C237.457 59.0453 243.878 63.6 248.956 68.976L228.796 92.272C225.212 89.136 221.478 86.8213 217.596 85.328C213.862 83.6853 209.532 82.864 204.604 82.864C199.078 82.864 193.852 84.5813 188.924 88.016C184.145 91.4507 180.262 96.304 177.276 102.576C174.289 108.848 172.796 116.315 172.796 124.976C172.796 134.085 174.214 141.851 177.052 148.272C179.889 154.544 183.846 159.323 188.924 162.608C194.001 165.893 199.825 167.536 206.396 167.536C211.622 167.536 216.326 166.491 220.508 164.4C224.689 162.16 228.198 159.621 231.036 156.784L250.3 179.632C243.878 186.8 236.71 192.101 228.796 195.536C221.03 198.971 212.668 200.688 203.708 200.688Z" fill="#6D28D9"/>
</svg>
